:SAMPLES-PER-SECOND 24
:FULLY-SPECIFIED
:DEGREES
49
root  -1.88548 44.8067 9.43287 141.534 34.7934 178.018
RightUpLeg  10.3866 -21.9291 -27.5302
RightLeg  72.498 3.57481 12.3524
RightFoot  26.3656 -0.0671534 0.742306
RightToes  -1.74623e-010 0 -2.59999e-017
Spine  15.5037 10.7228 18.4188
Spine1  19.0713 13.9362 -4.60502
HEad  24.505 0.297315 -1.53747
LeftShoulder1  1.29953 -2.8393 -13.5267
LeftArm  -44.7914 -44.9373 4.22825
LeftForeArm  46.8059 -72.0895 -30.6488
LeftHand  -0.422033 1.57356 12.7772
RightShoulder  2.05307 4.9944 17.5808
RightArm  -13.5731 46.4851 50.5635
RightForeArm  43.9096 69.4357 25.737
RightHand  -2.07028 2.5835 -29.7419
LeftUpLeg  -75.0307 28.3435 -21.4385
LeftLeg  85.427 -0.0836718 4.12687
LeftFoot  -3.41573 0.43716 -5.77676
LeftToes  -6.27559e-011 -2.10356e-011 8.24929e-012
50
root  -1.72004 45.4604 8.63939 141.818 17.6122 -173.473
RightUpLeg  -5.76275 -20.0125 -30.3451
RightLeg  106.593 -4.24878 13.4266
RightFoot  31.4052 0.409142 -0.468198
RightToes  -1.74623e-010 0 -2.59999e-017
Spine  15.821 7.67185 13.1337
Spine1  20.4928 6.5138 1.64695
HEad  26.4325 -11.3721 -1.74783
LeftShoulder1  1.81158 -3.76189 -18.3628
LeftArm  -40.2157 -55.66 -2.93179
LeftForeArm  51.3065 -72.8091 -31.5326
LeftHand  -0.351888 1.58338 10.6341
RightShoulder  2.78523 5.59804 24.4999
RightArm  -28.2173 36.7404 29.2511
RightForeArm  43.1041 72.6668 33.0151
RightHand  -1.8872 1.70381 -30.4274
LeftUpLeg  -62.1092 30.8172 -17.9572
LeftLeg  84.9178 -0.020499 4.87824
LeftFoot  4.97368 0.842189 -6.08339
LeftToes  -6.27559e-011 -2.10356e-011 8.24929e-012
51
root  -1.15365 46.3695 7.37402 139.815 2.52975 -164.85
RightUpLeg  -24.0537 -14.3492 -36.2047
RightLeg  122.473 -6.56925 10.0803
RightFoot  23.2204 1.24256 -3.45129
RightToes  -1.74623e-010 0 -2.59999e-017
Spine  14.5996 4.65453 5.10974
Spine1  19.8031 -2.09211 12.3805
HEad  26.731 -19.8117 -1.87731
LeftShoulder1  2.13897 -4.69171 -19.6398
LeftArm  -28.5319 -61.5497 -21.0436
LeftForeArm  56.5797 -74.2656 -34.583
LeftHand  -0.361798 1.89445 11.8231
RightShoulder  3.22621 5.81133 28.7016
RightArm  -38.4563 25.0874 13.6095
RightForeArm  38.7987 73.7462 37.4676
RightHand  -1.73704 1.22203 -30.0562
LeftUpLeg  -42.5357 32.2675 -4.96186
LeftLeg  81.6505 0.723184 8.94991
LeftFoot  9.90821 0.784814 -4.53164
LeftToes  -6.27559e-011 -2.10356e-011 8.24929e-012
52
root  -0.66778 46.9705 5.39401 135.663 -8.79861 -153.445
RightUpLeg  -40.8071 -16.2802 -43.0396
RightLeg  112.769 -1.40299 3.21339
RightFoot  16.0652 0.803964 -2.84901
RightToes  -1.74623e-010 0 -2.59999e-017
Spine  11.9554 0.213093 0.64914
Spine1  17.8637 -9.51023 21.5338
HEad  26.2553 -24.4378 -0.193679
LeftShoulder1  2.13079 -5.02195 -18.4291
LeftArm  -14.0057 -65.5817 -39.2885
LeftForeArm  55.1898 -73.5568 -32.7796
LeftHand  -0.527245 1.30642 14.9125
RightShoulder  3.50857 5.89126 31.4571
RightArm  -42.7387 14.4665 7.20316
RightForeArm  27.6557 70.9891 31.968
RightHand  -1.77141 1.94999 -27.7405
LeftUpLeg  -23.3553 32.2149 14.668
LeftLeg  73.5919 2.11632 9.5691
LeftFoot  16.6981 1.14544 -4.95643
LeftToes  -6.27559e-011 -2.10356e-011 8.24929e-012
53
root  -0.830346 46.798 3.63142 128.731 -17.2889 -141.197
RightUpLeg  -48.603 -23.2946 -46.772
RightLeg  83.1499 1.10536 4.35314
RightFoot  18.3166 1.57698 -5.35322
RightToes  -1.74623e-010 0 -2.59999e-017
Spine  9.68766 -4.53571 0.643266
Spine1  16.6166 -14.8849 27.2547
HEad  25.9917 -29.269 2.80546
LeftShoulder1  2.00164 -4.75696 -17.6087
LeftArm  7.40659 -67.8749 -60.9114
LeftForeArm  53.7954 -72.0846 -29.2244
LeftHand  -0.585194 0.859432 15.0245
RightShoulder  3.76092 6.02836 33.5725
RightArm  -43.5905 4.51829 4.40556
RightForeArm  15.0035 64.5868 23.1657
RightHand  -1.83758 3.22893 -24.6472
LeftUpLeg  -7.71303 30.5811 32.5986
LeftLeg  57.6478 5.50391 9.77834
LeftFoot  26.1922 2.89408 -8.90903
LeftToes  -6.27559e-011 -2.10356e-011 8.24929e-012
54
root  -1.73225 45.4403 3.26793 123.079 -23.8751 -132.936
RightUpLeg  -44.3452 -27.4779 -50.1751
RightLeg  34.1994 1.4908 0.841475
RightFoot  22.1545 -0.1927 1.15834
RightToes  -1.74623e-010 0 -2.59999e-017
Spine  8.44613 -5.90684 2.38758
Spine1  14.2729 -17.0572 33.9467
HEad  25.7092 -35.7328 6.87984
LeftShoulder1  1.77891 -4.51113 -15.3906
LeftArm  27.6854 -63.5431 -82.2437
LeftForeArm  57.4225 -72.796 -30.1929
LeftHand  -0.45131 1.35564 12.9372
RightShoulder  3.87508 6.07303 34.5745
RightArm  -42.0426 -5.92277 1.88928
RightForeArm  4.64703 56.2699 16.6746
RightHand  -1.83812 4.43511 -21.7474
LeftUpLeg  2.53681 28.0833 39.4727
LeftLeg  37.7109 11.0219 9.37522
LeftFoot  32.7006 3.4176 -8.95636
LeftToes  -6.27559e-011 -2.10356e-011 8.24929e-012
55
root  -1.46918 43.8486 1.74421 116.231 -31.1577 -123.432
RightUpLeg  -43.514 -41.1314 -43.5588
RightLeg  -1.38432 -1.14525 -1.38771
RightFoot  27.6888 -1.92714 6.01604
RightToes  -1.74623e-010 0 -2.59999e-017
Spine  7.64099 -6.0134 -0.627009
Spine1  9.76693 -16.9249 37.3011
HEad  21.7823 -40.3236 11.5756
LeftShoulder1  1.52396 -4.18912 -12.7706
LeftArm  37.8779 -60.6108 -90.7951
LeftForeArm  62.2434 -75.4878 -37.653
LeftHand  -0.392101 1.8071 12.5936
RightShoulder  3.8161 5.968 34.4025
RightArm  -41.2539 -15.1717 2.68617
RightForeArm  -2.4462 51.0544 14.1152
RightHand  -1.81029 5.34561 -19.686
LeftUpLeg  4.25789 21.8762 40.8963
LeftLeg  25.8239 9.67113 5.35537
LeftFoot  29.9437 1.64041 -4.68183
LeftToes  -6.27559e-011 -2.10356e-011 8.24929e-012
56
root  -0.605235 41.6181 0.294183 102.3 -36.3896 -108.148
RightUpLeg  -49.2037 -46.95 -42.0209
RightLeg  12.0098 -0.631069 1.77978
RightFoot  24.3005 -1.8846 6.4456
RightToes  -1.74623e-010 0 -2.59999e-017
Spine  8.75751 -6.06945 -1.51148
Spine1  8.58744 -17.6255 38.2512
HEad  12.7845 -42.9292 16.7513
LeftShoulder1  1.4139 -3.86607 -12.0813
LeftArm  40.3978 -63.5476 -87.8255
LeftForeArm  65.7015 -77.4872 -47.1408
LeftHand  -0.428029 1.77712 13.6503
RightShoulder  3.77089 5.91106 34.17
RightArm  -43.4027 -19.8412 5.5485
RightForeArm  -6.66153 48.0906 12.9813
RightHand  -1.94147 6.24493 -19.4948
LeftUpLeg  0.34356 16.6458 40.16
LeftLeg  26.65 7.55761 4.45233
LeftFoot  7.55084 -0.638012 4.51542
LeftToes  -6.27559e-011 -2.10356e-011 8.24929e-012
57
root  -0.0356907 39.8948 -2.04161 86.0098 -37.7815 -92.9885
RightUpLeg  -50.1216 -47.3187 -39.1364
RightLeg  27.1721 7.33202 3.74737
RightFoot  29.0671 -3.49027 9.98938
RightToes  -1.74623e-010 0 -2.59999e-017
Spine  9.17007 -5.0535 -2.99592
Spine1  9.94447 -16.4904 37.5456
HEad  4.38737 -45.0389 22.7632
LeftShoulder1  1.44693 -3.80032 -12.7659
LeftArm  37.8292 -64.179 -80.9707
LeftForeArm  63.1646 -77.4769 -48.309
LeftHand  -0.426854 1.72877 13.4428
RightShoulder  3.90283 6.04437 34.9799
RightArm  -43.7683 -19.6918 5.69375
RightForeArm  -8.4787 43.8988 11.336
RightHand  -2.15404 6.87174 -20.498
LeftUpLeg  -1.13205 13.3433 41.8972
LeftLeg  27.0555 7.29311 4.38366
LeftFoot  -15.5612 0.436056 9.4768
LeftToes  -6.27559e-011 -2.10356e-011 8.24929e-012
58
root  0.204697 38.9682 -4.07937 75.8699 -38.4065 -83.3148
RightUpLeg  -50.6162 -43.6944 -30.8956
RightLeg  28.9021 5.83285 3.25479
RightFoot  31.8985 -3.12155 8.44529
RightToes  -1.74623e-010 0 -2.59999e-017
Spine  8.92139 -2.99294 -5.00447
Spine1  10.087 -13.5001 35.6628
HEad  1.08771 -44.1741 26.8775
LeftShoulder1  1.56254 -3.65155 -14.996
LeftArm  25.5231 -56.1843 -62.9047
LeftForeArm  60.0656 -77.3234 -48.5802
LeftHand  -0.377084 1.94239 12.564
RightShoulder  3.91224 6.05293 35.0428
RightArm  -40.9231 -17.5187 7.00582
RightForeArm  -8.32457 41.9691 10.5885
RightHand  -2.27327 7.03552 -21.3193
LeftUpLeg  -5.84067 11.4496 42.6072
LeftLeg  31.0453 5.97151 4.22287
LeftFoot  -23.5826 0.973272 7.73842
LeftToes  -6.27559e-011 -2.10356e-011 8.24929e-012
59
root  0.248468 38.6043 -5.74472 67.2804 -38.7929 -74.0143
RightUpLeg  -51.977 -40.0615 -22.0222
RightLeg  37.2845 5.63459 4.51101
RightFoot  27.2365 -4.73126 14.0035
RightToes  -1.74623e-010 0 -2.59999e-017
Spine  8.45565 -1.8352 -5.75443
Spine1  10.248 -11.2779 32.1394
HEad  -0.985184 -40.8983 27.3051
LeftShoulder1  1.77195 -3.70118 -17.9891
LeftArm  17.6251 -43.5615 -47.5947
LeftForeArm  54.5088 -76.7045 -46.6944
LeftHand  -0.378195 2.05493 13.0193
RightShoulder  3.62574 5.76645 33.235
RightArm  -38.2647 -16.1671 12.5827
RightForeArm  -4.63639 45.5898 11.7749
RightHand  -2.32785 6.90872 -22.028
LeftUpLeg  -12.8651 11.4336 42.2395
LeftLeg  37.4381 1.00053 1.19087
LeftFoot  -24.4599 0.733855 5.09143
LeftToes  -6.27559e-011 -2.10356e-011 8.24929e-012
